# xmcd
#
# Track frame offsets:
#	150
#	14888
#	34669
#	51882
#
# Disc length: 877 seconds
#
# Revision: 1
# Processed by: cddbd v1.5.2PL0 Copyright (c) Steve Scherf et al.
# Submitted via: EZCDAudioConverter 5.0.3.2
#
DISCID=30036b04
DTITLE=Star and Dagger - Kill! Kill
DYEAR=2013
DGENRE=Blues Rock
TTITLE0=In My Blood
TTITLE1=Stories
TTITLE2=Out Of Focus
TTITLE3=Your Mama Was A Grifter
EXTD=
EXTT0=
EXTT1=
EXTT2=
EXTT3=
PLAYORDER=
